<?xml version="1.0" encoding="UTF-8"?>
<svg width="12px" height="11px" viewBox="0 0 12 11" version="1.1" xmlns="http://www.w3.org/2000/svg" xmlns:xlink="http://www.w3.org/1999/xlink">
    <!-- Generator: Sketch 52.6 (67491) - http://www.bohemiancoding.com/sketch -->
    <title>facebook</title>
    <desc>Created with Sketch.</desc>
    <g id="Page-1" stroke="none" stroke-width="1" fill="none" fill-rule="evenodd">
        <g id="Artboard-Copy-13" transform="translate(-891.000000, -703.000000)" fill="#FADE57">
            <g id="Group-2" transform="translate(0.000000, 690.000000)">
                <g id="Group-6" transform="translate(818.000000, 13.000000)">
                    <g id="facebook" transform="translate(73.921053, 0.000000)">
                        <path d="M10.4605263,5.5 C10.4605263,2.46289826 8.11841613,0 5.23026316,0 C2.34211019,0 0,2.46289826 0,5.5 C0,8.53710174 2.34211019,11 5.23026316,11 C5.26098903,11 5.2915553,10.9993286 5.32220138,10.9987411 L5.32220138,6.71722412 L4.19851203,6.71722412 L4.19851203,5.34012604 L5.32220138,5.34012604 L5.32220138,4.32675171 C5.32220138,3.15148926 6.00447554,2.51182555 7.00143061,2.51182555 C7.47883898,2.51182555 7.88920904,2.54925537 8.00884046,2.56595612 L8.00884046,3.79425812 L7.3213788,3.79425812 C6.77900717,3.79425812 6.6739805,4.0653305 6.6739805,4.46304321 L6.6739805,5.34012604 L7.9708521,5.34012604 L7.80181986,6.71722412 L6.6739805,6.71722412 L6.6739805,10.7875061 C8.86014688,10.1284561 10.4605263,8.01048278 10.4605263,5.5 Z" id="Path"></path>
                    </g>
                </g>
            </g>
        </g>
    </g>
</svg>