<?xml version="1.0" encoding="UTF-8"?>
<svg width="12px" height="11px" viewBox="0 0 12 11" version="1.1" xmlns="http://www.w3.org/2000/svg" xmlns:xlink="http://www.w3.org/1999/xlink">
    <!-- Generator: Sketch 52.6 (67491) - http://www.bohemiancoding.com/sketch -->
    <title>instagram</title>
    <desc>Created with Sketch.</desc>
    <g id="Page-1" stroke="none" stroke-width="1" fill="none" fill-rule="evenodd">
        <g id="Artboard-Copy-13" transform="translate(-869.000000, -703.000000)" fill="#F9DD56">
            <g id="Group-2" transform="translate(0.000000, 690.000000)">
                <g id="Group-6" transform="translate(818.000000, 13.000000)">
                    <g id="instagram" transform="translate(51.605263, 0.000000)">
                        <path d="M7.26076196,0 L3.30034634,0 C1.47789509,0 0,1.5393125 0,3.4375 L0,7.5625 C0,9.4606875 1.47789509,11 3.30034634,11 L7.26076196,11 C9.08321321,11 10.5611083,9.4606875 10.5611083,7.5625 L10.5611083,3.4375 C10.5611083,1.5393125 9.08321321,0 7.26076196,0 Z M9.5710044,7.5625 C9.5710044,8.889375 8.53469564,9.96875 7.26076196,9.96875 L3.30034634,9.96875 C2.02641265,9.96875 0.990103903,8.889375 0.990103903,7.5625 L0.990103903,3.4375 C0.990103903,2.110625 2.02641265,1.03125 3.30034634,1.03125 L7.26076196,1.03125 C8.53469564,1.03125 9.5710044,2.110625 9.5710044,3.4375 L9.5710044,7.5625 Z" id="Shape" fill-rule="nonzero"></path>
                        <path d="M5.28055415,2.75 C3.82246114,2.75 2.64027707,3.9813125 2.64027707,5.5 C2.64027707,7.0186875 3.82246114,8.25 5.28055415,8.25 C6.73864716,8.25 7.92083122,7.0186875 7.92083122,5.5 C7.92083122,3.9813125 6.73864716,2.75 5.28055415,2.75 Z M5.28055415,7.21875 C4.3709787,7.21875 3.63038098,6.447375 3.63038098,5.5 C3.63038098,4.5519375 4.3709787,3.78125 5.28055415,3.78125 C6.1901296,3.78125 6.93072732,4.5519375 6.93072732,5.5 C6.93072732,6.447375 6.1901296,7.21875 5.28055415,7.21875 Z" id="Shape" fill-rule="nonzero"></path>
                        <ellipse id="Oval" cx="8.0731549" cy="2.59134615" rx="1" ry="1"></ellipse>
                    </g>
                </g>
            </g>
        </g>
    </g>
</svg>