<?xml version="1.0" encoding="UTF-8"?>
<svg width="17px" height="11px" viewBox="0 0 17 11" version="1.1" xmlns="http://www.w3.org/2000/svg" xmlns:xlink="http://www.w3.org/1999/xlink">
    <!-- Generator: Sketch 52.6 (67491) - http://www.bohemiancoding.com/sketch -->
    <title>soundcloud</title>
    <desc>Created with Sketch.</desc>
    <g id="Page-1" stroke="none" stroke-width="1" fill="none" fill-rule="evenodd">
        <g id="Artboard-Copy-13" transform="translate(-842.000000, -703.000000)" fill="#FFE359">
            <g id="Group-2" transform="translate(0.000000, 690.000000)">
                <g id="Group-6" transform="translate(818.000000, 13.000000)">
                    <g id="soundcloud" transform="translate(24.407895, 0.733333)">
                        <path d="M13.5840305,4.23703704 C13.4049225,4.23703704 13.2291686,4.25751605 13.0594521,4.29494321 C12.833387,1.8876 10.8980819,0 8.55290806,0 C8.27519011,0 8.04979583,0.237274074 8.04979583,0.52962963 L8.04979583,9.0037037 C8.04979583,9.29605926 8.27519011,9.53333333 8.55290806,9.53333333 L13.5840305,9.53333333 C14.9719494,9.53333333 16.0995917,8.34625679 16.0995917,6.88518519 C16.0995917,5.42552593 14.9719494,4.23703704 13.5840305,4.23703704 Z" id="Path"></path>
                        <path d="M6.01780853,1.59744971 L6.01780853,9.00427443 C6.01780853,9.29631494 6.24539111,9.53333333 6.52580535,9.53333333 C6.8062196,9.53333333 7.03380218,9.29631494 7.03380218,9.00427443 L7.03380218,1.59744971 C7.03380218,1.3054092 6.8062196,1.0683908 6.52580535,1.0683908 C6.24539111,1.0683908 6.01780853,1.3054092 6.01780853,1.59744971 Z" id="Path"></path>
                        <path d="M3.98582123,3.73251916 L3.98582123,9.00598659 C3.98582123,9.29708199 4.21340381,9.53333333 4.49381806,9.53333333 C4.7742323,9.53333333 5.00181488,9.29708199 5.00181488,9.00598659 L5.00181488,3.73251916 C5.00181488,3.44142375 4.7742323,3.20517241 4.49381806,3.20517241 C4.21340381,3.20517241 3.98582123,3.44142375 3.98582123,3.73251916 Z" id="Path"></path>
                        <path d="M2.0319873,9.00598659 C2.0319873,9.29708199 2.25956987,9.53333333 2.53998412,9.53333333 C2.82039837,9.53333333 3.04798094,9.29708199 3.04798094,9.00598659 L3.04798094,3.73251916 C3.04798094,3.44142375 2.82039837,3.20517241 2.53998412,3.20517241 C2.25956987,3.20517241 2.0319873,3.44142375 2.0319873,3.73251916 L2.0319873,9.00598659 Z" id="Path"></path>
                        <path d="M0.507996824,9.53333333 C0.788411071,9.53333333 1.01599365,9.29401379 1.01599365,8.99913793 L1.01599365,5.79396552 C1.01599365,5.49908966 0.788411071,5.25977011 0.507996824,5.25977011 C0.227582577,5.25977011 0,5.49908966 0,5.79396552 L0,8.99913793 C0,9.29401379 0.227582577,9.53333333 0.507996824,9.53333333 Z" id="Path"></path>
                    </g>
                </g>
            </g>
        </g>
    </g>
</svg>