<?xml version="1.0" encoding="UTF-8"?>
<svg width="11px" height="11px" viewBox="0 0 11 11" version="1.1" xmlns="http://www.w3.org/2000/svg" xmlns:xlink="http://www.w3.org/1999/xlink">
    <!-- Generator: Sketch 52.6 (67491) - http://www.bohemiancoding.com/sketch -->
    <title>twitter</title>
    <desc>Created with Sketch.</desc>
    <g id="Page-1" stroke="none" stroke-width="1" fill="none" fill-rule="evenodd">
        <g id="Artboard-Copy-13" transform="translate(-913.000000, -703.000000)" fill="#FEE258">
            <g id="Group-2" transform="translate(0.000000, 690.000000)">
                <g id="Group-6" transform="translate(818.000000, 13.000000)">
                    <g id="twitter" transform="translate(95.539474, 0.733333)">
                        <path d="M10.4605263,1.1286 C10.0715255,1.32 9.65702714,1.44686667 9.22487664,1.50846667 C9.66944901,1.21073333 10.0087623,0.742866667 10.1682854,0.178933333 C9.75378701,0.456133333 9.29613898,0.651933333 8.80841694,0.7612 C8.41483964,0.291133333 7.85389391,0 7.24195313,0 C6.05468339,0 5.0988528,1.08093333 5.0988528,2.40606667 C5.0988528,2.59673333 5.11323602,2.78006667 5.1485403,2.9546 C3.36567434,2.85706667 1.78809622,1.8986 0.728314145,0.438533333 C0.543293586,0.7986 0.434765625,1.21073333 0.434765625,1.6544 C0.434765625,2.48746667 0.817228618,3.22593333 1.3873273,3.65346667 C1.04278372,3.64613333 0.704777961,3.53393333 0.418421053,3.3572 C0.418421053,3.36453333 0.418421053,3.37406667 0.418421053,3.3836 C0.418421053,4.55253333 1.1617722,5.52346667 2.1365625,5.74713333 C1.96200247,5.80066667 1.77175164,5.82633333 1.57430921,5.82633333 C1.4370148,5.82633333 1.29841283,5.81753333 1.16831003,5.78526667 C1.44616776,6.73786667 2.23462993,7.4382 3.17215461,7.46093333 C2.44253289,8.10113333 1.51612253,8.48686667 0.513219572,8.48686667 C0.337351974,8.48686667 0.168675987,8.47806667 0,8.45386667 C0.949946546,9.141 2.07576069,9.53333333 3.28983553,9.53333333 C7.23606908,9.53333333 9.39355263,5.86666667 9.39355263,2.6884 C9.39355263,2.58206667 9.39028372,2.4794 9.38570724,2.37746667 C9.8113199,2.03866667 10.1689391,1.61553333 10.4605263,1.1286 Z" id="Path"></path>
                    </g>
                </g>
            </g>
        </g>
    </g>
</svg>