<?xml version="1.0" encoding="UTF-8"?>
<svg width="14px" height="11px" viewBox="0 0 14 11" version="1.1" xmlns="http://www.w3.org/2000/svg" xmlns:xlink="http://www.w3.org/1999/xlink">
    <!-- Generator: Sketch 52.6 (67491) - http://www.bohemiancoding.com/sketch -->
    <title>youtube</title>
    <desc>Created with Sketch.</desc>
    <g id="Page-1" stroke="none" stroke-width="1" fill="none" fill-rule="evenodd">
        <g id="Artboard-Copy-13" transform="translate(-818.000000, -703.000000)" fill="#FDE158" fill-rule="nonzero">
            <g id="Group-2" transform="translate(0.000000, 690.000000)">
                <g id="Group-6" transform="translate(818.000000, 13.000000)">
                    <g id="youtube" transform="translate(0.000000, 0.733333)">
                        <path d="M12.686875,0.918666667 C12.3274688,0.2496 11.9374219,0.126533333 11.14325,0.0797333333 C10.3499063,0.0234 8.35495312,0 6.62665625,0 C4.89504688,0 2.89926563,0.0234 2.10675,0.0788666667 C1.31423438,0.126533333 0.923359375,0.248733333 0.560640625,0.918666667 C0.19046875,1.58686667 0,2.7378 0,4.76406667 C0,4.7658 0,4.76666667 0,4.76666667 C0,4.7684 0,4.76926667 0,4.76926667 L0,4.771 C0,6.7886 0.19046875,7.9482 0.560640625,8.60946667 C0.923359375,9.27853333 1.31340625,9.39986667 2.10592187,9.4562 C2.89926562,9.50473333 4.89504687,9.53333333 6.62665625,9.53333333 C8.35495312,9.53333333 10.3499063,9.50473333 11.1440781,9.45706667 C11.93825,9.40073333 12.3282969,9.2794 12.6877031,8.61033333 C13.0611875,7.94906667 13.25,6.78946667 13.25,4.77186667 C13.25,4.77186667 13.25,4.76926667 13.25,4.76753333 C13.25,4.76753333 13.25,4.7658 13.25,4.76493333 C13.25,2.7378 13.0611875,1.58686667 12.686875,0.918666667 Z M4.88157895,7.33333333 L4.88157895,2.2 L9.06578947,4.76666667 L4.88157895,7.33333333 Z" id="Shape"></path>
                    </g>
                </g>
            </g>
        </g>
    </g>
</svg>