<?xml version="1.0" encoding="UTF-8"?>
<svg width="11px" height="9px" viewBox="0 0 11 9" version="1.1" xmlns="http://www.w3.org/2000/svg" xmlns:xlink="http://www.w3.org/1999/xlink">
    <!-- Generator: Sketch 52.6 (67491) - http://www.bohemiancoding.com/sketch -->
    <title>Combined Shape Copy</title>
    <desc>Created with Sketch.</desc>
    <g id="Page-1" stroke="none" stroke-width="1" fill="none" fill-rule="evenodd">
        <g id="Artboard-Copy-13" transform="translate(-291.000000, -564.000000)" fill="#FBDF57">
            <g id="Group-9" transform="translate(273.000000, 239.000000)">
                <g id="Group-4" transform="translate(-0.000000, 314.000000)">
                    <path d="M22.5203574,14.165937 L22.5203574,12.5881549 C22.5203574,12.4471017 22.5647422,12.3096245 22.6472236,12.1952006 C22.8642462,11.8941315 23.2842426,11.8259984 23.5853117,12.0430211 L27.7635891,15.0548908 C27.8221617,15.0971123 27.8735471,15.1484976 27.9157686,15.2070703 C28.1327913,15.5081394 28.0646582,15.9281358 27.7635891,16.1451584 L23.5853117,19.1570281 C23.4708878,19.2395095 23.3334106,19.2838943 23.1923574,19.2838943 C22.821222,19.2838943 22.5203574,18.9830296 22.5203574,18.6118943 L22.5203574,17.0341122 L19.5752991,19.1570281 C19.4608752,19.2395095 19.3233981,19.2838943 19.1823448,19.2838943 C18.8112095,19.2838943 18.5103448,18.9830296 18.5103448,18.6118943 L18.5103448,12.5881549 C18.5103448,12.4471017 18.5547296,12.3096245 18.637211,12.1952006 C18.8542337,11.8941315 19.27423,11.8259984 19.5752991,12.0430211 L22.5203574,14.165937 Z" id="Combined-Shape-Copy" transform="translate(23.278161, 15.600000) scale(-1, 1) translate(-23.278161, -15.600000) "></path>
                </g>
            </g>
        </g>
    </g>
</svg>