<?xml version="1.0" encoding="UTF-8"?>
<svg width="21px" height="20px" viewBox="0 0 21 20" version="1.1" xmlns="http://www.w3.org/2000/svg" xmlns:xlink="http://www.w3.org/1999/xlink">
    <!-- Generator: Sketch 52.6 (67491) - http://www.bohemiancoding.com/sketch -->
    <title>speaker</title>
    <desc>Created with Sketch.</desc>
    <g id="Page-1" stroke="none" stroke-width="1" fill="none" fill-rule="evenodd">
        <g id="Artboard-Copy-10" transform="translate(-225.000000, -348.000000)" fill="#000000">
            <g id="Group-7" transform="translate(225.000000, 270.000000)">
                <g id="speaker" transform="translate(-0.000000, 78.000000)">
                    <path d="M11.6226667,0.0708313477 C11.3906667,-0.0477351349 11.1173333,-0.0163078744 10.9173333,0.156542058 L4.432,5.71488162 L1.33333333,5.71488162 C0.598666667,5.71488162 0,6.35628344 0,7.14339346 L0,12.8574408 C0,13.6459793 0.598666667,14.2859526 1.33333333,14.2859526 L4.432,14.2859526 L10.916,19.8442922 C11.0373333,19.9471451 11.1853333,20 11.3333333,20 C11.432,20 11.5306667,19.9757153 11.6226667,19.9285744 C11.8533333,19.8100079 12,19.5600184 12,19.2857441 L12,0.715090187 C12,0.440815914 11.8533333,0.190826342 11.6226667,0.0708313477 Z" id="Path"></path>
                    <path d="M16.1006428,5.21508075 C15.8459298,4.92509124 15.4373547,4.92957561 15.1865206,5.22105992 C14.9356865,5.5155338 14.9382724,5.98788785 15.1916924,6.27937216 C16.1691696,7.39448647 16.7070407,8.89376215 16.7070407,10.5006628 C16.7070407,12.1075634 16.1691696,13.6068391 15.1916924,14.7219534 C14.9382724,15.0104482 14.9356865,15.484297 15.1865206,15.7787709 C15.3132306,15.9267552 15.4800223,16 15.6455211,16 C15.8097269,16 15.9739328,15.92825 16.1006428,15.7832553 C17.3263682,14.388615 18,12.5111571 18,10.5006628 C18,8.49016849 17.3263682,6.61271062 16.1006428,5.21508075 Z" id="Path"></path>
                    <path d="M18.1715044,3.1996078 C17.9007494,2.93141202 17.4664421,2.93416274 17.1984359,3.20373389 C16.9318042,3.47330503 16.9345529,3.9092951 17.2025591,4.17611552 C18.7652411,5.7261496 19.6256095,7.79469553 19.6256095,10.0007778 C19.6256095,12.20686 18.7652411,14.2740306 17.2025591,15.8240646 C16.9345529,16.0922604 16.9318042,16.5282505 17.1984359,16.7978216 C17.3345006,16.9326072 17.5104225,17 17.6863445,17 C17.8608921,17 18.0368141,16.9339826 18.1715044,16.8005724 C19.9966949,14.99197 21,12.5768326 21,10.0007778 C21,7.42472289 19.9966949,5.00958549 18.1715044,3.1996078 Z" id="Path"></path>
                </g>
            </g>
        </g>
    </g>
</svg>